<?xml version="1.0" encoding="UTF-8" standalone="no"?>
<!DOCTYPE svg PUBLIC "-//W3C//DTD SVG 1.1//EN" "http://www.w3.org/Graphics/SVG/1.1/DTD/svg11.dtd">
<svg width="100%" height="100%" viewBox="0 0 723 247" version="1.1" xmlns="http://www.w3.org/2000/svg" xmlns:xlink="http://www.w3.org/1999/xlink" xml:space="preserve" xmlns:serif="http://www.serif.com/" style="fill-rule:evenodd;clip-rule:evenodd;stroke-linejoin:round;stroke-miterlimit:2;">
    <g transform="matrix(1,0,0,1,-190.75,-89.493728)">
        <g transform="matrix(0.552,0,0,0.141667,0,0)">
            <g transform="matrix(9.382629,0,0,36.55914,-7288.06148,-44771.816127)">
                <path d="M819.291,1252.82C820.258,1251.554 821.574,1250.487 823.241,1249.62C824.908,1248.754 826.791,1248.32 828.891,1248.32C831.291,1248.32 833.483,1248.912 835.466,1250.095C837.449,1251.279 839.008,1252.937 840.141,1255.07C841.274,1257.204 841.841,1259.654 841.841,1262.42C841.841,1265.187 841.274,1267.662 840.141,1269.845C839.008,1272.029 837.449,1273.729 835.466,1274.945C833.483,1276.162 831.291,1276.77 828.891,1276.77C826.791,1276.77 824.924,1276.345 823.291,1275.495C821.658,1274.645 820.324,1273.587 819.291,1272.32L819.291,1289.42L813.591,1289.42L813.591,1248.77L819.291,1248.77L819.291,1252.82ZM836.041,1262.42C836.041,1260.52 835.649,1258.879 834.866,1257.495C834.083,1256.112 833.049,1255.062 831.766,1254.345C830.483,1253.629 829.108,1253.27 827.641,1253.27C826.208,1253.27 824.849,1253.637 823.566,1254.37C822.283,1255.104 821.249,1256.17 820.466,1257.57C819.683,1258.97 819.291,1260.62 819.291,1262.52C819.291,1264.42 819.683,1266.079 820.466,1267.495C821.249,1268.912 822.283,1269.987 823.566,1270.72C824.849,1271.454 826.208,1271.82 827.641,1271.82C829.108,1271.82 830.483,1271.445 831.766,1270.695C833.049,1269.945 834.083,1268.854 834.866,1267.42C835.649,1265.987 836.041,1264.32 836.041,1262.42Z" style="fill:white;fill-rule:nonzero;"/>
                <path d="M845.591,1262.42C845.591,1259.654 846.166,1257.204 847.316,1255.07C848.466,1252.937 850.033,1251.279 852.016,1250.095C853.999,1248.912 856.191,1248.32 858.591,1248.32C860.758,1248.32 862.649,1248.745 864.266,1249.595C865.883,1250.445 867.174,1251.504 868.141,1252.77L868.141,1248.77L873.891,1248.77L873.891,1276.32L868.141,1276.32L868.141,1272.22C867.174,1273.52 865.858,1274.604 864.191,1275.47C862.524,1276.337 860.624,1276.77 858.491,1276.77C856.124,1276.77 853.958,1276.162 851.991,1274.945C850.024,1273.729 848.466,1272.029 847.316,1269.845C846.166,1267.662 845.591,1265.187 845.591,1262.42ZM868.141,1262.52C868.141,1260.62 867.749,1258.97 866.966,1257.57C866.183,1256.17 865.158,1255.104 863.891,1254.37C862.624,1253.637 861.258,1253.27 859.791,1253.27C858.324,1253.27 856.958,1253.629 855.691,1254.345C854.424,1255.062 853.399,1256.112 852.616,1257.495C851.833,1258.879 851.441,1260.52 851.441,1262.42C851.441,1264.32 851.833,1265.987 852.616,1267.42C853.399,1268.854 854.433,1269.945 855.716,1270.695C856.999,1271.445 858.358,1271.82 859.791,1271.82C861.258,1271.82 862.624,1271.454 863.891,1270.72C865.158,1269.987 866.183,1268.912 866.966,1267.495C867.749,1266.079 868.141,1264.42 868.141,1262.52Z" style="fill:white;fill-rule:nonzero;"/>
                <path d="M891.391,1276.77C889.224,1276.77 887.283,1276.379 885.566,1275.595C883.849,1274.812 882.491,1273.745 881.491,1272.395C880.491,1271.045 879.958,1269.537 879.891,1267.87L885.791,1267.87C885.891,1269.037 886.449,1270.012 887.466,1270.795C888.483,1271.579 889.758,1271.97 891.291,1271.97C892.891,1271.97 894.133,1271.662 895.016,1271.045C895.899,1270.429 896.341,1269.637 896.341,1268.67C896.341,1267.637 895.849,1266.87 894.866,1266.37C893.883,1265.87 892.324,1265.32 890.191,1264.72C888.124,1264.154 886.441,1263.604 885.141,1263.07C883.841,1262.537 882.716,1261.72 881.766,1260.62C880.816,1259.52 880.341,1258.07 880.341,1256.27C880.341,1254.804 880.774,1253.462 881.641,1252.245C882.508,1251.029 883.749,1250.07 885.366,1249.37C886.983,1248.67 888.841,1248.32 890.941,1248.32C891.525,1248.32 921.441,1248.812 921.441,1248.812L921.441,1253.286C921.441,1253.286 891.496,1253.12 890.741,1253.12C889.241,1253.12 888.091,1253.404 887.291,1253.97C886.491,1254.537 886.091,1255.287 886.091,1256.22C886.091,1256.954 886.358,1257.57 886.891,1258.07C887.424,1258.57 888.074,1258.962 888.841,1259.245C889.608,1259.529 890.741,1259.887 892.241,1260.32C894.241,1260.854 895.883,1261.395 897.166,1261.945C898.449,1262.495 899.558,1263.304 900.491,1264.37C901.424,1265.437 901.908,1266.854 901.941,1268.62C901.941,1270.187 901.508,1271.587 900.641,1272.82C899.774,1274.054 898.549,1275.02 896.966,1275.72C895.383,1276.42 893.524,1276.77 891.391,1276.77Z" style="fill:white;fill-rule:nonzero;"/>
                <path d="M914.741,1241.92L914.741,1268.67C914.741,1269.704 914.983,1270.445 915.466,1270.895C915.949,1271.345 916.774,1271.57 917.941,1271.57L921.441,1271.57L921.441,1276.32L916.941,1276.32C914.374,1276.32 912.408,1275.72 911.041,1274.52C909.674,1273.32 908.991,1271.37 908.991,1268.67L908.991,1241.92L914.741,1241.92Z" style="fill:white;fill-rule:nonzero;"/>
                <path d="M924.791,1262.42C924.791,1259.654 925.366,1257.204 926.516,1255.07C927.666,1252.937 929.233,1251.279 931.216,1250.095C933.199,1248.912 935.391,1248.32 937.791,1248.32C939.958,1248.32 941.849,1248.745 943.466,1249.595C945.083,1250.445 946.374,1251.504 947.341,1252.77L947.341,1248.77L953.091,1248.77L953.091,1276.32L947.341,1276.32L947.341,1272.22C946.374,1273.52 945.058,1274.604 943.391,1275.47C941.724,1276.337 939.824,1276.77 937.691,1276.77C935.324,1276.77 933.158,1276.162 931.191,1274.945C929.224,1273.729 927.666,1272.029 926.516,1269.845C925.366,1267.662 924.791,1265.187 924.791,1262.42ZM947.341,1262.52C947.341,1260.62 946.949,1258.97 946.166,1257.57C945.383,1256.17 944.358,1255.104 943.091,1254.37C941.824,1253.637 940.458,1253.27 938.991,1253.27C937.524,1253.27 936.158,1253.629 934.891,1254.345C933.624,1255.062 932.599,1256.112 931.816,1257.495C931.033,1258.879 930.641,1260.52 930.641,1262.42C930.641,1264.32 931.033,1265.987 931.816,1267.42C932.599,1268.854 933.633,1269.945 934.916,1270.695C936.199,1271.445 937.558,1271.82 938.991,1271.82C940.458,1271.82 941.824,1271.454 943.091,1270.72C944.358,1269.987 945.383,1268.912 946.166,1267.495C946.949,1266.079 947.341,1264.42 947.341,1262.52Z" style="fill:white;fill-rule:nonzero;"/>
            </g>
        </g>
    </g>
</svg>
