<?xml version="1.0" encoding="UTF-8" standalone="no"?><!DOCTYPE svg PUBLIC "-//W3C//DTD SVG 1.1//EN" "http://www.w3.org/Graphics/SVG/1.1/DTD/svg11.dtd"><svg width="100%" height="100%" viewBox="0 0 542 260" version="1.1" xmlns="http://www.w3.org/2000/svg" xmlns:xlink="http://www.w3.org/1999/xlink" xml:space="preserve" xmlns:serif="http://www.serif.com/" style="fill-rule:evenodd;clip-rule:evenodd;stroke-linejoin:round;stroke-miterlimit:2;"><path d="M428.286,181.805c-3.484,5.115 -7.321,9.064 -11.511,11.845c-9.01,5.981 -17.943,8.972 -26.798,8.972c-7.457,0 -13.477,-2.33 -18.06,-6.991c-4.583,-4.661 -6.874,-11.651 -6.874,-20.973c0,-3.884 0.621,-8.933 1.864,-15.147l13.982,-65.481l-7.69,0l1.864,-9.321l7.69,0l6.991,-32.158l34.488,-4.661l-7.923,36.818l13.982,0l-1.864,9.321l-13.982,0l-14.914,69.909c-0.621,2.33 -0.932,4.816 -0.932,7.457c0,3.107 0.738,5.321 2.214,6.641c1.476,1.32 3.923,1.981 7.34,1.981c4.505,0 8.7,-1.903 12.584,-5.709c2.118,-2.075 3.912,-4.486 5.383,-7.231c-0.016,-0.649 -0.024,-1.307 -0.024,-1.974c0,-11.496 2.291,-23.575 6.874,-36.236c4.583,-12.661 11.418,-23.381 20.507,-32.158c9.088,-8.777 19.924,-13.166 32.507,-13.166c6.369,0 11.108,1.087 14.215,3.262c3.107,2.175 4.661,5.049 4.661,8.622l0,1.631l2.563,-12.351l33.556,0l-16.778,79.23c-0.621,2.33 -0.932,4.816 -0.932,7.457c0,3.107 0.738,5.321 2.214,6.641c1.476,1.32 3.923,1.981 7.34,1.981c2.175,0 3.884,-0.311 5.127,-0.932c-3.418,8.7 -6.68,14.797 -9.787,18.293c-3.107,3.495 -7.612,5.243 -13.516,5.243c-6.369,0 -11.535,-1.903 -15.496,-5.709c-3.961,-3.806 -6.408,-9.127 -7.34,-15.962c-9.476,14.448 -21.05,21.672 -34.721,21.672c-8.855,0 -16.234,-3.029 -22.138,-9.088c-2.968,-3.046 -5.189,-6.955 -6.665,-11.728Zm43.95,-1.787c3.884,0 7.729,-1.825 11.535,-5.476c3.806,-3.651 6.408,-8.661 7.806,-15.03l11.185,-52.664c0,-2.02 -0.777,-4 -2.33,-5.942c-1.554,-1.942 -3.961,-2.913 -7.224,-2.913c-6.214,0 -11.807,3.612 -16.778,10.836c-4.971,7.224 -8.855,15.924 -11.651,26.099c-2.796,10.176 -4.195,19.147 -4.195,26.915c0,7.768 1.126,12.739 3.379,14.914c2.253,2.175 5.01,3.262 8.273,3.262Zm-433.2,-103.931l33.556,0l-3.728,17.477c7.768,-6.68 16.856,-10.02 27.264,-10.02c8.7,0 15.613,2.874 20.74,8.622c5.127,5.748 7.69,15.147 7.69,28.196c0,12.273 -1.787,24.662 -5.36,37.168c-3.573,12.506 -9.632,23.147 -18.176,31.925c-8.544,8.777 -19.807,13.166 -33.789,13.166c-9.943,0 -16.545,-2.796 -19.807,-8.389l-12.117,56.859l-35.187,8.389l38.916,-183.393Zm20.973,106.261c7.457,0 13.632,-3.495 18.526,-10.486c4.894,-6.991 8.467,-15.341 10.719,-25.051c2.253,-9.71 3.379,-18.759 3.379,-27.148c0,-12.894 -3.884,-19.341 -11.651,-19.341c-2.796,0 -5.632,1.01 -8.506,3.029c-2.874,2.02 -5.398,4.816 -7.573,8.389l-13.749,65.248c1.243,3.573 4.195,5.36 8.855,5.36Zm98.338,20.273c-8.855,0 -16.234,-3.029 -22.138,-9.088c-5.903,-6.059 -8.855,-15.535 -8.855,-28.429c0,-11.496 2.291,-23.575 6.874,-36.236c4.583,-12.661 11.418,-23.381 20.507,-32.158c9.088,-8.777 19.924,-13.166 32.507,-13.166c6.369,0 11.108,1.087 14.215,3.262c3.107,2.175 4.661,5.049 4.661,8.622l0,1.631l2.563,-12.351l33.556,0l-16.778,79.23c-0.621,2.33 -0.932,4.816 -0.932,7.457c0,3.107 0.738,5.321 2.214,6.641c1.476,1.32 3.923,1.981 7.34,1.981c2.175,0 3.884,-0.311 5.127,-0.932c-3.418,8.7 -6.68,14.797 -9.787,18.293c-3.107,3.495 -7.612,5.243 -13.516,5.243c-6.369,0 -11.535,-1.903 -15.496,-5.709c-3.961,-3.806 -6.408,-9.127 -7.34,-15.962c-9.476,14.448 -21.05,21.672 -34.721,21.672Zm15.147,-22.604c3.884,0 7.729,-1.825 11.535,-5.476c3.806,-3.651 6.408,-8.661 7.806,-15.03l11.185,-52.664c0,-2.02 -0.777,-4 -2.33,-5.942c-1.554,-1.942 -3.961,-2.913 -7.224,-2.913c-6.214,0 -11.807,3.612 -16.778,10.836c-4.971,7.224 -8.855,15.924 -11.651,26.099c-2.796,10.176 -4.195,19.147 -4.195,26.915c0,7.768 1.126,12.739 3.379,14.914c2.253,2.175 5.01,3.262 8.273,3.262Zm157.993,-109.29c2.952,-2.175 5.282,-5.049 6.991,-8.622c1.709,-3.573 2.563,-7.302 2.563,-11.185c0,-3.728 -0.816,-6.874 -2.447,-9.438c-1.631,-2.563 -4,-4.466 -7.107,-5.709l-13.05,56.859l5.36,5.826c6.059,6.369 10.991,12.001 14.797,16.895c3.806,4.894 6.991,10.37 9.554,16.429c2.563,6.059 3.845,12.584 3.845,19.574c0,9.787 -2.641,18.798 -7.923,27.031c-5.282,8.234 -12.428,14.797 -21.439,19.691c-9.01,4.894 -18.953,7.34 -29.828,7.34l-6.758,29.129l-11.651,0l6.758,-29.828c-11.807,-1.864 -21.206,-6.447 -28.196,-13.749c-6.991,-7.302 -10.486,-16.312 -10.486,-27.031c0,-9.166 2.408,-16.7 7.224,-22.604c4.816,-5.903 11.03,-8.855 18.642,-8.855c5.127,0 9.554,1.437 13.283,4.311c3.728,2.874 5.981,6.564 6.758,11.069c-6.525,0 -11.807,1.903 -15.846,5.709c-4.039,3.806 -6.059,8.816 -6.059,15.03c0,5.437 1.631,9.943 4.894,13.516c3.262,3.573 7.768,5.748 13.516,6.525l15.613,-68.976c-2.796,-3.262 -4.272,-4.971 -4.428,-5.127c-8.389,-9.943 -14.681,-18.448 -18.875,-25.517c-4.195,-7.069 -6.292,-14.72 -6.292,-22.953c0,-8.078 2.214,-15.341 6.641,-21.788c4.428,-6.447 10.525,-11.535 18.293,-15.263c7.768,-3.728 16.467,-5.593 26.099,-5.593l0.466,0l5.36,-23.303l11.884,0l-5.593,24.468c9.166,1.709 16.351,5.36 21.555,10.952c5.204,5.593 7.806,12.428 7.806,20.507c0,6.525 -1.631,11.807 -4.894,15.846c-3.262,4.039 -7.535,6.059 -12.817,6.059c-5.903,0 -10.642,-2.408 -14.215,-7.224Zm-30.76,-12.584c0,7.457 2.874,15.225 8.622,23.303l10.486,-46.373c-5.748,0.932 -10.37,3.495 -13.865,7.69c-3.495,4.195 -5.243,9.321 -5.243,15.38Zm19.807,101.833c0,-9.166 -3.651,-18.72 -10.952,-28.662l-13.05,57.325c7.302,-1.243 13.127,-4.466 17.477,-9.671c4.35,-5.204 6.525,-11.535 6.525,-18.992Z" style="fill:#60ffa0;stroke:#bafcb5;stroke-width:0.24px;"/></svg>