<?xml version="1.0" encoding="UTF-8" standalone="no"?><!DOCTYPE svg PUBLIC "-//W3C//DTD SVG 1.1//EN" "http://www.w3.org/Graphics/SVG/1.1/DTD/svg11.dtd"><svg width="100%" height="100%" viewBox="0 0 246 246" version="1.1" xmlns="http://www.w3.org/2000/svg" xmlns:xlink="http://www.w3.org/1999/xlink" xml:space="preserve" xmlns:serif="http://www.serif.com/" style="fill-rule:evenodd;clip-rule:evenodd;stroke-linecap:round;stroke-linejoin:round;stroke-miterlimit:1.5;"><rect id="Artboard2" x="0" y="0" width="245.76" height="245.76" style="fill:#121212;"/><clipPath id="_clip1"><rect x="0" y="0" width="245.76" height="245.76"/></clipPath><g clip-path="url(#_clip1)"><path d="M175.083,0c18.745,-0 36.721,7.446 49.976,20.701c13.254,13.254 20.701,31.231 20.701,49.976l0,104.407c0,18.745 -7.446,36.721 -20.701,49.976c-13.254,13.254 -31.231,20.701 -49.976,20.701l-104.407,-0c-18.745,0 -36.721,-7.446 -49.976,-20.701c-13.254,-13.254 -20.701,-31.231 -20.701,-49.976c-0,-32.774 -0,-71.633 -0,-104.407c-0,-18.745 7.446,-36.721 20.701,-49.976c13.254,-13.254 31.231,-20.701 49.976,-20.701c32.774,0 71.633,0 104.407,0Z" style="fill:#121212;"/><clipPath id="_clip2"><path d="M175.083,0c18.745,-0 36.721,7.446 49.976,20.701c13.254,13.254 20.701,31.231 20.701,49.976l0,104.407c0,18.745 -7.446,36.721 -20.701,49.976c-13.254,13.254 -31.231,20.701 -49.976,20.701l-104.407,-0c-18.745,0 -36.721,-7.446 -49.976,-20.701c-13.254,-13.254 -20.701,-31.231 -20.701,-49.976c-0,-32.774 -0,-71.633 -0,-104.407c-0,-18.745 7.446,-36.721 20.701,-49.976c13.254,-13.254 31.231,-20.701 49.976,-20.701c32.774,0 71.633,0 104.407,0Z"/></clipPath><g clip-path="url(#_clip2)"><path d="M245.76,175.083c0,18.745 -7.446,36.721 -20.701,49.976c-13.254,13.254 -31.231,20.701 -49.976,20.701l-104.407,-0c-18.745,0 -36.721,-7.446 -49.976,-20.701c-3.254,-3.254 -6.157,-6.792 -8.686,-10.556" style="fill:none;stroke:#5efd9f;stroke-width:36px;"/><path d="M0,70.677c-0,-18.745 7.446,-36.721 20.701,-49.976c13.254,-13.254 31.231,-20.701 49.976,-20.701l104.407,0c18.745,-0 36.721,7.446 49.976,20.701c13.254,13.254 20.701,31.231 20.701,49.976" style="fill:none;stroke:#5efd9f;stroke-width:33px;"/></g><path d="M185.033,140.413c-1.385,2.033 -2.91,3.602 -4.575,4.707c-3.581,2.377 -7.131,3.565 -10.65,3.565c-2.963,0 -5.356,-0.926 -7.177,-2.778c-1.821,-1.852 -2.732,-4.63 -2.732,-8.335c0,-1.543 0.247,-3.55 0.741,-6.019l5.556,-26.022l-3.056,0l0.741,-3.704l3.056,0l2.778,-12.78l13.706,-1.852l-3.149,14.632l5.556,0l-0.741,3.704l-5.556,0l-5.927,27.782c-0.247,0.926 -0.37,1.914 -0.37,2.963c0,1.235 0.293,2.115 0.88,2.639c0.587,0.525 1.559,0.787 2.917,0.787c1.79,0 3.457,-0.756 5.001,-2.269c0.842,-0.825 1.555,-1.783 2.139,-2.874c-0.006,-0.258 -0.009,-0.519 -0.009,-0.784c0,-4.569 0.911,-9.369 2.732,-14.4c1.821,-5.032 4.538,-9.291 8.149,-12.78c3.612,-3.488 7.918,-5.232 12.919,-5.232c2.531,0 4.414,0.432 5.649,1.296c1.235,0.864 1.852,2.006 1.852,3.426l0,0.648l1.019,-4.908l13.335,0l-6.668,31.486c-0.247,0.926 -0.37,1.914 -0.37,2.963c0,1.235 0.293,2.115 0.88,2.639c0.587,0.525 1.559,0.787 2.917,0.787c0.864,0 1.543,-0.123 2.037,-0.37c-1.358,3.457 -2.655,5.88 -3.889,7.27c-1.235,1.389 -3.025,2.084 -5.371,2.084c-2.531,0 -4.584,-0.756 -6.158,-2.269c-1.574,-1.513 -2.547,-3.627 -2.917,-6.344c-3.766,5.742 -8.365,8.612 -13.798,8.612c-3.519,0 -6.452,-1.204 -8.798,-3.612c-1.179,-1.21 -2.062,-2.764 -2.649,-4.661Zm17.466,-0.71c1.543,0 3.071,-0.725 4.584,-2.176c1.513,-1.451 2.547,-3.442 3.102,-5.973l4.445,-20.929c0,-0.803 -0.309,-1.59 -0.926,-2.361c-0.617,-0.772 -1.574,-1.158 -2.871,-1.158c-2.469,0 -4.692,1.435 -6.668,4.306c-1.976,2.871 -3.519,6.328 -4.63,10.372c-1.111,4.044 -1.667,7.609 -1.667,10.696c0,3.087 0.448,5.062 1.343,5.927c0.895,0.864 1.991,1.296 3.288,1.296Zm-172.155,-41.302l13.335,0l-1.482,6.945c3.087,-2.655 6.699,-3.982 10.835,-3.982c3.457,0 6.205,1.142 8.242,3.426c2.037,2.284 3.056,6.019 3.056,11.205c0,4.877 -0.71,9.801 -2.13,14.771c-1.42,4.97 -3.828,9.199 -7.223,12.687c-3.396,3.488 -7.872,5.232 -13.428,5.232c-3.951,0 -6.575,-1.111 -7.872,-3.334l-4.816,22.596l-13.984,3.334l15.465,-72.881Zm8.335,42.228c2.963,0 5.417,-1.389 7.362,-4.167c1.945,-2.778 3.365,-6.097 4.26,-9.955c0.895,-3.859 1.343,-7.455 1.343,-10.789c0,-5.124 -1.543,-7.686 -4.63,-7.686c-1.111,0 -2.238,0.401 -3.38,1.204c-1.142,0.803 -2.145,1.914 -3.01,3.334l-5.464,25.93c0.494,1.42 1.667,2.13 3.519,2.13Zm39.08,8.057c-3.519,0 -6.452,-1.204 -8.798,-3.612c-2.346,-2.408 -3.519,-6.174 -3.519,-11.298c0,-4.569 0.911,-9.369 2.732,-14.4c1.821,-5.032 4.538,-9.291 8.149,-12.78c3.612,-3.488 7.918,-5.232 12.919,-5.232c2.531,0 4.414,0.432 5.649,1.296c1.235,0.864 1.852,2.006 1.852,3.426l0,0.648l1.019,-4.908l13.335,0l-6.668,31.486c-0.247,0.926 -0.37,1.914 -0.37,2.963c0,1.235 0.293,2.115 0.88,2.639c0.587,0.525 1.559,0.787 2.917,0.787c0.864,0 1.543,-0.123 2.037,-0.37c-1.358,3.457 -2.655,5.88 -3.889,7.27c-1.235,1.389 -3.025,2.084 -5.371,2.084c-2.531,0 -4.584,-0.756 -6.158,-2.269c-1.574,-1.513 -2.547,-3.627 -2.917,-6.344c-3.766,5.742 -8.365,8.612 -13.798,8.612Zm6.019,-8.983c1.543,0 3.071,-0.725 4.584,-2.176c1.513,-1.451 2.547,-3.442 3.102,-5.973l4.445,-20.929c0,-0.803 -0.309,-1.59 -0.926,-2.361c-0.617,-0.772 -1.574,-1.158 -2.871,-1.158c-2.469,0 -4.692,1.435 -6.668,4.306c-1.976,2.871 -3.519,6.328 -4.63,10.372c-1.111,4.044 -1.667,7.609 -1.667,10.696c0,3.087 0.448,5.062 1.343,5.927c0.895,0.864 1.991,1.296 3.288,1.296Zm62.787,-43.432c1.173,-0.864 2.099,-2.006 2.778,-3.426c0.679,-1.42 1.019,-2.902 1.019,-4.445c0,-1.482 -0.324,-2.732 -0.972,-3.751c-0.648,-1.019 -1.59,-1.775 -2.824,-2.269l-5.186,22.596l2.13,2.315c2.408,2.531 4.368,4.769 5.88,6.714c1.513,1.945 2.778,4.121 3.797,6.529c1.019,2.408 1.528,5.001 1.528,7.779c0,3.889 -1.05,7.47 -3.149,10.742c-2.099,3.272 -4.939,5.88 -8.52,7.825c-3.581,1.945 -7.532,2.917 -11.854,2.917l-2.686,11.576l-4.63,0l2.686,-11.854c-4.692,-0.741 -8.427,-2.562 -11.205,-5.464c-2.778,-2.902 -4.167,-6.482 -4.167,-10.742c0,-3.643 0.957,-6.637 2.871,-8.983c1.914,-2.346 4.383,-3.519 7.408,-3.519c2.037,0 3.797,0.571 5.279,1.713c1.482,1.142 2.377,2.608 2.686,4.399c-2.593,0 -4.692,0.756 -6.297,2.269c-1.605,1.513 -2.408,3.504 -2.408,5.973c0,2.161 0.648,3.951 1.945,5.371c1.296,1.42 3.087,2.284 5.371,2.593l6.205,-27.411c-1.111,-1.296 -1.698,-1.976 -1.76,-2.037c-3.334,-3.951 -5.834,-7.331 -7.501,-10.14c-1.667,-2.809 -2.5,-5.85 -2.5,-9.122c0,-3.21 0.88,-6.097 2.639,-8.659c1.76,-2.562 4.183,-4.584 7.27,-6.066c3.087,-1.482 6.544,-2.223 10.372,-2.223l0.185,0l2.13,-9.261l4.723,0l-2.223,9.724c3.643,0.679 6.498,2.13 8.566,4.352c2.068,2.223 3.102,4.939 3.102,8.149c0,2.593 -0.648,4.692 -1.945,6.297c-1.296,1.605 -2.994,2.408 -5.093,2.408c-2.346,0 -4.229,-0.957 -5.649,-2.871Zm-12.224,-5.001c0,2.963 1.142,6.05 3.426,9.261l4.167,-18.429c-2.284,0.37 -4.121,1.389 -5.51,3.056c-1.389,1.667 -2.084,3.704 -2.084,6.112Zm7.872,40.469c0,-3.643 -1.451,-7.439 -4.352,-11.391l-5.186,22.781c2.902,-0.494 5.217,-1.775 6.945,-3.843c1.729,-2.068 2.593,-4.584 2.593,-7.547Z" style="fill:#5ffe9f;"/></g></svg>