<?xml version="1.0" encoding="UTF-8" standalone="no"?><!DOCTYPE svg PUBLIC "-//W3C//DTD SVG 1.1//EN" "http://www.w3.org/Graphics/SVG/1.1/DTD/svg11.dtd"><svg width="100%" height="100%" viewBox="0 0 246 246" version="1.1" xmlns="http://www.w3.org/2000/svg" xmlns:xlink="http://www.w3.org/1999/xlink" xml:space="preserve" xmlns:serif="http://www.serif.com/" style="fill-rule:evenodd;clip-rule:evenodd;stroke-linecap:round;stroke-linejoin:round;stroke-miterlimit:1.5;"><rect id="Artboard2" x="0" y="0" width="245.76" height="245.76" style="fill:#bafcb5;"/><clipPath id="_clip1"><rect x="0" y="0" width="245.76" height="245.76"/></clipPath><g clip-path="url(#_clip1)"><path d="M175.083,0c18.745,-0 36.721,7.446 49.976,20.701c13.254,13.254 20.701,31.231 20.701,49.976l0,104.407c0,18.745 -7.446,36.721 -20.701,49.976c-13.254,13.254 -31.231,20.701 -49.976,20.701l-104.407,-0c-18.745,0 -36.721,-7.446 -49.976,-20.701c-13.254,-13.254 -20.701,-31.231 -20.701,-49.976c-0,-32.774 -0,-71.633 -0,-104.407c-0,-18.745 7.446,-36.721 20.701,-49.976c13.254,-13.254 31.231,-20.701 49.976,-20.701c32.774,0 71.633,0 104.407,0Z" style="fill:#009b5c;"/><clipPath id="_clip2"><path d="M175.083,0c18.745,-0 36.721,7.446 49.976,20.701c13.254,13.254 20.701,31.231 20.701,49.976l0,104.407c0,18.745 -7.446,36.721 -20.701,49.976c-13.254,13.254 -31.231,20.701 -49.976,20.701l-104.407,-0c-18.745,0 -36.721,-7.446 -49.976,-20.701c-13.254,-13.254 -20.701,-31.231 -20.701,-49.976c-0,-32.774 -0,-71.633 -0,-104.407c-0,-18.745 7.446,-36.721 20.701,-49.976c13.254,-13.254 31.231,-20.701 49.976,-20.701c32.774,0 71.633,0 104.407,0Z"/></clipPath><g clip-path="url(#_clip2)"><path d="M245.76,169.888l-0,5.195c0,18.745 -7.446,36.721 -20.701,49.976c-13.254,13.254 -31.231,20.701 -49.976,20.701l-104.407,-0c-18.745,0 -36.721,-7.446 -49.976,-20.701c-6.737,-6.737 -11.974,-14.694 -15.495,-23.352" style="fill:none;stroke:#bafcb5;stroke-width:36px;"/><path d="M0,97.92l0,-27.243c-0,-18.745 7.446,-36.721 20.701,-49.976c13.254,-13.254 31.231,-20.701 49.976,-20.701l104.407,0c18.745,-0 36.721,7.446 49.976,20.701c13.254,13.254 20.701,31.231 20.701,49.976l0,9.212" style="fill:none;stroke:#bafcb5;stroke-width:33px;"/></g><g transform="matrix(92.606206,0,0,92.606206,66.645933,148.129709)"><path d="M0.12,0.006c-0.038,0 -0.07,-0.013 -0.095,-0.039c-0.025,-0.026 -0.038,-0.067 -0.038,-0.122c-0,-0.049 0.01,-0.101 0.029,-0.155c0.02,-0.054 0.049,-0.1 0.088,-0.138c0.039,-0.038 0.086,-0.056 0.14,-0.056c0.027,0 0.048,0.005 0.061,0.014c0.013,0.009 0.02,0.022 0.02,0.037l0,0.007l0.011,-0.053l0.144,0l-0.072,0.34c-0.003,0.01 -0.004,0.021 -0.004,0.032c0,0.013 0.003,0.023 0.01,0.028c0.006,0.006 0.017,0.008 0.031,0.009c0.009,-0 0.017,-0.001 0.022,-0.004c-0.015,0.037 -0.029,0.064 -0.042,0.079c-0.013,0.015 -0.033,0.023 -0.058,0.022c-0.027,0 -0.049,-0.008 -0.067,-0.024c-0.017,-0.016 -0.027,-0.039 -0.031,-0.069c-0.041,0.062 -0.09,0.093 -0.149,0.093Zm0.065,-0.097c0.017,-0 0.033,-0.008 0.05,-0.024c0.016,-0.016 0.027,-0.037 0.034,-0.064l0.048,-0.226c0,-0.009 -0.003,-0.017 -0.01,-0.025c-0.007,-0.008 -0.017,-0.013 -0.031,-0.013c-0.027,0 -0.051,0.016 -0.072,0.046c-0.021,0.031 -0.038,0.068 -0.05,0.112c-0.012,0.044 -0.018,0.082 -0.018,0.116c0,0.033 0.005,0.055 0.014,0.064c0.01,0.009 0.022,0.014 0.036,0.014Z" style="fill:#bafcb5;fill-rule:nonzero;"/></g><g transform="matrix(92.606206,0,0,92.606206,66.645933,148.129709)"></g><g transform="matrix(92.606206,0,0,92.606206,185.36709,148.129709)"><path d="M0.12,0.006c-0.038,0 -0.07,-0.013 -0.095,-0.039c-0.025,-0.026 -0.038,-0.067 -0.038,-0.122c-0,-0.049 0.01,-0.101 0.029,-0.155c0.02,-0.054 0.049,-0.1 0.088,-0.138c0.039,-0.038 0.086,-0.056 0.14,-0.056c0.027,0 0.048,0.005 0.061,0.014c0.013,0.009 0.02,0.022 0.02,0.037l0,0.007l0.011,-0.053l0.144,0l-0.072,0.34c-0.003,0.01 -0.004,0.021 -0.004,0.032c0,0.013 0.003,0.023 0.01,0.028c0.006,0.006 0.017,0.008 0.031,0.009c0.009,-0 0.017,-0.001 0.022,-0.004c-0.015,0.037 -0.029,0.064 -0.042,0.079c-0.013,0.015 -0.033,0.023 -0.058,0.022c-0.027,0 -0.049,-0.008 -0.067,-0.024c-0.017,-0.016 -0.027,-0.039 -0.031,-0.069c-0.041,0.062 -0.09,0.093 -0.149,0.093Zm0.065,-0.097c0.017,-0 0.033,-0.008 0.05,-0.024c0.016,-0.016 0.027,-0.037 0.034,-0.064l0.048,-0.226c0,-0.009 -0.003,-0.017 -0.01,-0.025c-0.007,-0.008 -0.017,-0.013 -0.031,-0.013c-0.027,0 -0.051,0.016 -0.072,0.046c-0.021,0.031 -0.038,0.068 -0.05,0.112c-0.012,0.044 -0.018,0.082 -0.018,0.116c0,0.033 0.005,0.055 0.014,0.064c0.01,0.009 0.022,0.014 0.036,0.014Z" style="fill:#bafcb5;fill-rule:nonzero;"/></g><g transform="matrix(92.606206,0,0,92.606206,185.36709,148.129709)"></g><g transform="matrix(92.606206,0,0,92.606206,228.614188,148.129709)"></g><text x="23.306px" y="148.13px" style="font-family:'Lobster-Regular', 'Lobster';font-size:92.606px;fill:#bafcb5;stroke:#bafcb5;stroke-width:0.24px;stroke-linecap:butt;stroke-miterlimit:2;">p<tspan x="109.893px " y="148.13px ">$</tspan>t</text></g></svg>