<?xml version="1.0" encoding="UTF-8" standalone="no"?><!DOCTYPE svg PUBLIC "-//W3C//DTD SVG 1.1//EN" "http://www.w3.org/Graphics/SVG/1.1/DTD/svg11.dtd"><svg width="100%" height="100%" viewBox="0 0 246 246" version="1.1" xmlns="http://www.w3.org/2000/svg" xmlns:xlink="http://www.w3.org/1999/xlink" xml:space="preserve" xmlns:serif="http://www.serif.com/" style="fill-rule:evenodd;clip-rule:evenodd;stroke-linejoin:round;stroke-miterlimit:2;"><rect id="Artboard2" x="0" y="0" width="245.76" height="245.76" style="fill:none;"/><path d="M35.683,67.194l0.007,-30.654l113.737,0c11.386,0 21.677,2.19 30.873,6.569c9.196,4.379 16.458,10.619 21.786,18.721c5.328,8.101 7.992,17.918 7.992,29.45c0,11.386 -2.664,21.166 -7.992,29.34c-5.328,8.174 -12.59,14.451 -21.786,18.83c-9.196,4.379 -19.487,6.569 -30.873,6.569l-13.348,0c-3.753,0 -6.796,3.042 -6.796,6.796l-0,56.406l-35.033,0c0,0 0.122,-48.936 0.189,-76.137c0.024,-9.793 7.97,-17.719 17.763,-17.719l33.941,-0c8.466,0 15.29,-2.007 20.472,-6.021c5.182,-4.014 7.773,-10.036 7.773,-18.064c0,-8.174 -2.591,-14.232 -7.773,-18.173c-5.182,-3.941 -12.006,-5.912 -20.472,-5.912l-110.46,0Z" style="fill-rule:nonzero;"/></svg>