<?xml version="1.0" encoding="UTF-8" standalone="no"?>
<!DOCTYPE svg PUBLIC "-//W3C//DTD SVG 1.1//EN" "http://www.w3.org/Graphics/SVG/1.1/DTD/svg11.dtd">
<svg width="100%" height="100%" viewBox="0 0 1024 1024" version="1.1" xmlns="http://www.w3.org/2000/svg" xmlns:xlink="http://www.w3.org/1999/xlink" xml:space="preserve" xmlns:serif="http://www.serif.com/" style="fill-rule:evenodd;clip-rule:evenodd;stroke-linejoin:round;stroke-miterlimit:2;">
    <g transform="matrix(1,0,0,1,-2546,-5)">
        <g id="Artboard2" transform="matrix(0.927536,0,0,2.409412,1475.623188,5)">
            <rect x="1154" y="0" width="1104" height="425" style="fill:rgb(29,29,29);"/>
            <clipPath id="_clip1">
                <rect x="1154" y="0" width="1104" height="425"/>
            </clipPath>
            <g clip-path="url(#_clip1)">
                <g transform="matrix(18.4,0,0,7.083333,-33364.4,-4965.416667)">
                    <path d="M1918.745,701C1923.321,701 1927.71,702.818 1930.946,706.054C1934.182,709.29 1936,713.679 1936,718.255L1936,743.745C1936,748.321 1934.182,752.71 1930.946,755.946C1927.71,759.182 1923.321,761 1918.745,761L1893.255,761C1888.679,761 1884.29,759.182 1881.054,755.946C1877.818,752.71 1876,748.321 1876,743.745L1876,718.255C1876,713.679 1877.818,709.29 1881.054,706.054C1884.29,702.818 1888.679,701 1893.255,701L1918.745,701Z" style="fill:rgb(29,29,29);"/>
                </g>
                <g transform="matrix(8.320089,0,0,3.202933,-21903.902333,-1525.592443)">
                    <path d="M2871.256,552.123C2870.509,553.22 2869.685,554.068 2868.786,554.664C2866.853,555.948 2864.936,556.589 2863.036,556.589C2861.436,556.589 2860.145,556.089 2859.161,555.089C2858.178,554.089 2857.686,552.589 2857.686,550.589C2857.686,549.756 2857.82,548.673 2858.086,547.339L2861.086,533.289L2859.436,533.289L2859.836,531.289L2861.486,531.289L2862.986,524.389L2870.386,523.389L2868.686,531.289L2871.686,531.289L2871.286,533.289L2868.286,533.289L2865.086,548.289C2864.953,548.789 2864.886,549.323 2864.886,549.889C2864.886,550.556 2865.045,551.031 2865.361,551.314C2865.678,551.598 2866.203,551.739 2866.936,551.739C2867.903,551.739 2868.803,551.331 2869.636,550.514C2870.091,550.069 2870.476,549.552 2870.791,548.963C2870.788,548.824 2870.786,548.683 2870.786,548.539C2870.786,546.073 2871.278,543.481 2872.261,540.764C2873.245,538.048 2874.711,535.748 2876.661,533.864C2878.611,531.981 2880.936,531.039 2883.636,531.039C2885.003,531.039 2886.02,531.273 2886.686,531.739C2887.353,532.206 2887.686,532.823 2887.686,533.589L2887.686,533.939L2888.236,531.289L2895.436,531.289L2891.836,548.289C2891.703,548.789 2891.636,549.323 2891.636,549.889C2891.636,550.556 2891.795,551.031 2892.111,551.314C2892.428,551.598 2892.953,551.739 2893.686,551.739C2894.153,551.739 2894.52,551.673 2894.786,551.539C2894.053,553.406 2893.353,554.714 2892.686,555.464C2892.02,556.214 2891.053,556.589 2889.786,556.589C2888.42,556.589 2887.311,556.181 2886.461,555.364C2885.611,554.548 2885.086,553.406 2884.886,551.939C2882.853,555.039 2880.37,556.589 2877.436,556.589C2875.536,556.589 2873.953,555.939 2872.686,554.639C2872.05,553.986 2871.573,553.147 2871.256,552.123ZM2880.686,551.739C2881.52,551.739 2882.345,551.348 2883.161,550.564C2883.978,549.781 2884.536,548.706 2884.836,547.339L2887.236,536.039C2887.236,535.606 2887.07,535.181 2886.736,534.764C2886.403,534.348 2885.886,534.139 2885.186,534.139C2883.853,534.139 2882.653,534.914 2881.586,536.464C2880.52,538.014 2879.686,539.881 2879.086,542.064C2878.486,544.248 2878.186,546.173 2878.186,547.839C2878.186,549.506 2878.428,550.573 2878.911,551.039C2879.395,551.506 2879.986,551.739 2880.686,551.739ZM2787.736,529.439L2794.936,529.439L2794.136,533.189C2795.803,531.756 2797.753,531.039 2799.986,531.039C2801.853,531.039 2803.336,531.656 2804.436,532.889C2805.536,534.123 2806.086,536.139 2806.086,538.939C2806.086,541.573 2805.703,544.231 2804.936,546.914C2804.17,549.598 2802.87,551.881 2801.036,553.764C2799.203,555.648 2796.786,556.589 2793.786,556.589C2791.653,556.589 2790.236,555.989 2789.536,554.789L2786.936,566.989L2779.386,568.789L2787.736,529.439ZM2792.236,552.239C2793.836,552.239 2795.161,551.489 2796.211,549.989C2797.261,548.489 2798.028,546.698 2798.511,544.614C2798.995,542.531 2799.236,540.589 2799.236,538.789C2799.236,536.023 2798.403,534.639 2796.736,534.639C2796.136,534.639 2795.528,534.856 2794.911,535.289C2794.295,535.723 2793.753,536.323 2793.286,537.089L2790.336,551.089C2790.603,551.856 2791.236,552.239 2792.236,552.239ZM2813.336,556.589C2811.436,556.589 2809.853,555.939 2808.586,554.639C2807.32,553.339 2806.686,551.306 2806.686,548.539C2806.686,546.073 2807.178,543.481 2808.161,540.764C2809.145,538.048 2810.611,535.748 2812.561,533.864C2814.511,531.981 2816.836,531.039 2819.536,531.039C2820.903,531.039 2821.92,531.273 2822.586,531.739C2823.253,532.206 2823.586,532.823 2823.586,533.589L2823.586,533.939L2824.136,531.289L2831.336,531.289L2827.736,548.289C2827.603,548.789 2827.536,549.323 2827.536,549.889C2827.536,550.556 2827.695,551.031 2828.011,551.314C2828.328,551.598 2828.853,551.739 2829.586,551.739C2830.053,551.739 2830.42,551.673 2830.686,551.539C2829.953,553.406 2829.253,554.714 2828.586,555.464C2827.92,556.214 2826.953,556.589 2825.686,556.589C2824.32,556.589 2823.211,556.181 2822.361,555.364C2821.511,554.548 2820.986,553.406 2820.786,551.939C2818.753,555.039 2816.27,556.589 2813.336,556.589ZM2816.586,551.739C2817.42,551.739 2818.245,551.348 2819.061,550.564C2819.878,549.781 2820.436,548.706 2820.736,547.339L2823.136,536.039C2823.136,535.606 2822.97,535.181 2822.636,534.764C2822.303,534.348 2821.786,534.139 2821.086,534.139C2819.753,534.139 2818.553,534.914 2817.486,536.464C2816.42,538.014 2815.586,539.881 2814.986,542.064C2814.386,544.248 2814.086,546.173 2814.086,547.839C2814.086,549.506 2814.328,550.573 2814.811,551.039C2815.295,551.506 2815.886,551.739 2816.586,551.739ZM2850.486,528.289C2851.12,527.823 2851.62,527.206 2851.986,526.439C2852.353,525.673 2852.536,524.873 2852.536,524.039C2852.536,523.239 2852.361,522.564 2852.011,522.014C2851.661,521.464 2851.153,521.056 2850.486,520.789L2847.686,532.989L2848.836,534.239C2850.136,535.606 2851.195,536.814 2852.011,537.864C2852.828,538.914 2853.511,540.089 2854.061,541.389C2854.611,542.689 2854.886,544.089 2854.886,545.589C2854.886,547.689 2854.32,549.623 2853.186,551.389C2852.053,553.156 2850.52,554.564 2848.586,555.614C2846.653,556.664 2844.52,557.189 2842.186,557.189L2840.736,563.439L2838.236,563.439L2839.686,557.039C2837.153,556.639 2835.136,555.656 2833.636,554.089C2832.136,552.523 2831.386,550.589 2831.386,548.289C2831.386,546.323 2831.903,544.706 2832.936,543.439C2833.97,542.173 2835.303,541.539 2836.936,541.539C2838.036,541.539 2838.986,541.848 2839.786,542.464C2840.586,543.081 2841.07,543.873 2841.236,544.839C2839.836,544.839 2838.703,545.248 2837.836,546.064C2836.97,546.881 2836.536,547.956 2836.536,549.289C2836.536,550.456 2836.886,551.423 2837.586,552.189C2838.286,552.956 2839.253,553.423 2840.486,553.589L2843.836,538.789C2843.236,538.089 2842.92,537.723 2842.886,537.689C2841.086,535.556 2839.736,533.731 2838.836,532.214C2837.936,530.698 2837.486,529.056 2837.486,527.289C2837.486,525.556 2837.961,523.998 2838.911,522.614C2839.861,521.231 2841.17,520.139 2842.836,519.339C2844.503,518.539 2846.37,518.139 2848.436,518.139L2848.536,518.139L2849.686,513.139L2852.236,513.139L2851.036,518.389C2853.003,518.756 2854.545,519.539 2855.661,520.739C2856.778,521.939 2857.336,523.406 2857.336,525.139C2857.336,526.539 2856.986,527.673 2856.286,528.539C2855.586,529.406 2854.67,529.839 2853.536,529.839C2852.27,529.839 2851.253,529.323 2850.486,528.289ZM2843.886,525.589C2843.886,527.189 2844.503,528.856 2845.736,530.589L2847.986,520.639C2846.753,520.839 2845.761,521.389 2845.011,522.289C2844.261,523.189 2843.886,524.289 2843.886,525.589ZM2848.136,547.439C2848.136,545.473 2847.353,543.423 2845.786,541.289L2842.986,553.589C2844.553,553.323 2845.803,552.631 2846.736,551.514C2847.67,550.398 2848.136,549.039 2848.136,547.439Z" style="fill:rgb(4,212,173);"/>
                </g>
            </g>
        </g>
    </g>
</svg>
